PathFileType	4	(X/Y/Z)	C:/Users/beibeiliu/ov580/test_trc\sequence.26_training_dense_right.trc
DataRate	CameraRate	NumFrames	NumMarkers	Units	OrigDataRate	OrigDataStartFrame	OrigNumFrames
120	120	14	19	mm	120	1	54
Frame#	Time	ThumbCMC			ThumbMCP			ThumbIP			ThumbTip			IndexMCP			IndexPIP			IndexTip			MiddleMCP			MiddlePIP			MiddleTip			RingMCP			RingPIP			RingTip			PinkyMCP			PinkyPIP			PinkyTip			BackHand1			BackHand2			BackHand3	
		X0	Y0	Z0	X1	Y1	Z1	X2	Y2	Z2	X3	Y3	Z3	X4	Y4	Z4	X5	Y5	Z5	X6	Y6	Z6	X7	Y7	Z7	X8	Y8	Z8	X9	Y9	Z9	X10	Y10	Z10	X11	Y11	Z11	X12	Y12	Z12	X13	Y13	Z13	X14	Y14	Z14	X15	Y15	Z15	X16	Y16	Z16	X17	Y17	Z17	X18	Y18	Z18	
0	0	185.105	34.4501	159.779	170.617	42.5396	123.301	175.023	35.7804	93.8644	186.351	14.7574	80.1551	240.407	41.2456	111.22	247.237	49.0747	84.7126	255.829	55.199	67.0662	225.067	18.6353	94.6099	195.714	26.1473	82.5074	180.844	20.6198	117.094	218.064	2.76494	92.895	188.675	9.73845	85.2734	173.494	10.0944	116.822	228.405	-21.4212	104.371	235.883	-24.9662	83.1432	246.433	-30.7147	64.3475	225.116	-11.4752	148.76	212.039	-15.685	177.921	218.534	16.8405	169.905	
1	0.00833333	158.875	40.9599	148.02	146.283	35.213	118.454	155.075	30.9655	87.0765	169.821	18.4009	71.586	206.368	64.5901	103.375	211.358	74.8311	77.3738	219.628	76.9202	53.6327	202.943	40.7514	90.5635	173.094	29.4358	77.9943	164.414	22.2951	112.599	203.981	22.4219	87.1874	179.978	8.12193	78.7948	162.965	9.80617	111.114	223.461	4.28292	103.438	234.822	3.03058	81.1737	246.053	5.83165	60.5556	214.192	15.0336	145.482	203.427	7.36832	174.085	197.034	40.8284	161.745	
2	0.0166667	133.311	31.8682	144.91	130.149	19.1824	110.36	136.797	15.3012	80.8569	160.017	8.63726	70.1679	173.476	67.8545	93.0352	173.706	76.1316	69.8085	182.93	78.1007	45.2615	177.979	41.5052	78.5656	156.733	20.2558	71.8151	150.538	14.8751	108.619	189.663	23.9495	83.3733	168.882	6.3394	75.8146	154.308	1.64858	107.34	212.546	19.8478	99.8467	221.708	17.4679	80.8338	233.641	22.2652	62.9132	198.164	30.1621	140.077	192.454	22.2298	168.393	172.152	47.9387	155.484	
3	0.025	114.019	21.6101	136.384	110.93	1.42537	108.391	124.736	-5.01368	79.0426	149.037	-9.86799	68.8299	144.255	55.529	82.5997	146.396	58.404	52.4338	156.097	57.5439	30.4255	162.011	27.3514	73.8854	145.506	-1.10536	71.0073	139.094	0.817355	105.668	171.603	15.36	77.7826	154.801	-11.4782	78.4847	142.213	-8.80049	108.51	195.849	18.549	97.3835	204.866	15.0881	80.314	221.506	19.01	58.3431	176.069	36.4134	134.049	170.551	28.1279	165.301	144.994	48.3036	141.981	
4	0.0333333	99.5465	9.24988	133.272	100.347	-16.6763	111.81	112.31	-28.8249	85.564	139.52	-32.6672	77.0505	129.419	31.198	70.4331	128.244	27.9789	46.8567	138.358	20.8189	23.5277	144.386	8.6461	73.1586	132.972	-23.8634	75.5067	124.669	-16.4074	107.36	159.118	-2.28893	82.5208	142.514	-30.8989	84.9666	130.375	-23.9545	115.691	183.45	3.64775	99.0977	195.337	-1.03741	76.5048	209.667	-3.03958	57.9486	160.308	27.7164	131.173	158.939	28.3799	161.01	132.503	37.2592	138.473	
5	0.0416667	89.1401	-0.935263	135.384	89.5382	-28.854	120.267	97.2966	-45.3021	100.45	121.406	-52.3977	88.5573	112.199	7.65091	69.9913	117.115	-3.56783	45.4394	116.359	-13.3019	20.902	132.571	-15.1078	76.3634	122.101	-45.7085	83.1719	112.265	-31.052	114.131	143.841	-25.4987	84.2552	132.725	-51.8237	94.715	117.709	-39.0526	120.787	172.882	-16.0053	97.6253	178.537	-24.0695	81.8548	196.897	-31.3889	60.6415	153.238	13.5479	126.513	146.378	21.5385	153.992	121.95	26.5592	130.436	
6	0.05	83.5867	2.54838	141.42	71.6393	-25.9338	128.196	76.036	-48.2219	106.455	98.3543	-61.8829	96.4124	102.578	-3.61754	73.2431	97.5572	-16.8208	49.4253	102.824	-33.1304	30.5413	114.815	-27.2589	80.6736	100.362	-53.0931	93.5449	98.8292	-32.3484	123.656	131.022	-40.5602	91.4828	113.439	-61.113	106.4	104.453	-43.5826	133.013	154.718	-32.6104	102.812	161.979	-49.9397	87.3487	172.975	-60.2994	67.2145	143.818	6.92669	127.905	140.639	17.6775	154.613	116.042	22.9001	130.249	
7	0.0583333	85.3602	18.4607	149.695	66.1955	-6.09302	133.253	62.699	-27.4324	112.964	82.5599	-48.4312	102.183	97.3688	2.22272	76.6258	89.9916	-14.8058	54.1042	84.5848	-29.6984	33.941	102.368	-28.7006	87.1641	81.0633	-45.3728	102.967	89.5544	-24.3832	134.63	113.876	-43.7894	98.0532	92.296	-56.576	115.777	88.057	-35.1804	139.161	138.947	-42.511	107.54	134.779	-58.0653	94.7094	142.988	-73.1926	75.5713	143.524	-0.884867	125.156	146.995	13.3288	157.148	121.603	27.1672	134.08	
8	0.0666667	102.264	31.0883	149.7	76.327	22.8925	133.651	70.2821	5.02574	113.172	82.6198	-22.1851	108.165	100.988	12.822	79.9478	88.247	6.08847	58.1828	77.965	-6.70169	40.4804	94.3563	-15.8066	90.8603	64.6674	-24.9368	106.865	67.6693	-14.5121	136.54	100.701	-30.1029	100.637	73.4571	-36.5893	115.031	78.9045	-17.1956	145.585	120.453	-44.9737	108.129	107.953	-55.1657	94.6783	108.587	-72.018	80.1874	145.571	-11.0444	129.037	153.824	-0.636633	156.459	136.324	23.4611	138.344	
9	0.075	118.117	46.4288	155.025	89.6099	43.6189	133.285	79.5786	25.7559	113.447	86.5728	-5.80201	113.271	108.272	27.2633	80.9534	94.1595	30.8262	62.8058	76.9955	22.6059	39.6134	89.2446	7.20098	88.9109	59.2311	6.14415	104.281	59.2216	14.2931	135.809	92.6576	-13.1607	99.3049	64.306	-8.4521	111.276	71.6721	6.542	141.747	105.888	-36.0701	107.63	91.6659	-40.9931	93.5487	84.5768	-51.8891	74.8856	139.349	-6.08303	130.886	151.6	-5.79404	154.989	147.339	22.0341	138.798	
10	0.0833333	132.337	45.376	152.349	103.652	52.2912	130.189	87.8	34.9649	111.269	90.8588	2.84464	115.633	123.189	36.4797	83.6269	107.07	42.4258	58.8325	93.4659	36.3156	40.1288	97.0617	18.3336	88.7374	67.8061	24.7752	97.8283	66.2661	33.47	132.975	90.8053	-0.841759	95.6396	66.3435	11.2469	107.22	74.5592	24.2736	137.811	99.9021	-26.7636	106.347	86.2824	-27.7561	90.4854	73.9051	-37.7	68.6818	140.616	-7.61432	131.925	154.061	-9.85427	157.678	153.429	18.7749	140.199	
11	0.0916667	143.753	44.5913	155.156	120.417	52.8925	131.442	101.611	39.8171	105.91	95.3685	9.65023	107.94	136.339	37.2688	79.5937	123.663	41.5527	56.3411	109.062	43.6703	34.2316	111.228	24.3345	86.0567	79.4741	37.9691	93.1118	78.1134	48.3173	127.125	98.1438	5.99765	91.1206	74.4553	21.8047	101.739	85.7626	34.3461	132.851	101.415	-17.5333	98.3162	85.6982	-21.3726	83.1015	72.4895	-27.9276	65.2103	139.242	-12.6559	126.02	151.71	-14.7326	155.818	159.683	16.0497	135.535	
12	0.1	153.709	37.7087	153.02	133.699	48.1603	128.935	119.445	46.2654	105	106.076	21.6825	94.8812	150.46	27.5077	76.3303	138.416	33.0465	54.628	127.367	39.878	35.5016	120.025	19.9237	79.8781	91.897	35.0286	89.8904	92.444	42.898	122.188	106.484	3.50345	87.5143	83.9335	22.5944	99.9896	98.0376	33.3426	127.863	105.135	-23.811	96.5669	92.5341	-21.2132	80.012	78.9301	-23.4309	59.4523	144.833	-21.0545	127.015	150.785	-23.3828	156.623	167.901	2.64948	139.945	
13	0.108333	162.118	20.1757	150.067	146.664	37.662	127.241	138.146	40.2136	102.004	124.43	31.1255	82.7027	164.733	4.43266	80.2613	155.163	13.2188	53.258	135.794	27.9446	33.8827	135.198	-3.0247	80.8329	111.341	20.3114	81.6477	112.864	29.2543	119.91	117.123	-11.7236	85.1441	104.338	12.8404	91.3035	109.885	20.3767	121.901	113.717	-37.1559	99.6149	100.211	-32.7717	76.7839	91.174	-30.6654	58.1909	150.427	-35.0409	133.575	153.334	-36.8734	159.467	175.598	-13.6351	143.915	
